<?xml version="1.0" encoding="UTF-8" standalone="no"?>
<svg
   xmlns:dc="http://purl.org/dc/elements/1.1/"
   xmlns:cc="http://creativecommons.org/ns#"
   xmlns:rdf="http://www.w3.org/1999/02/22-rdf-syntax-ns#"
   xmlns:svg="http://www.w3.org/2000/svg"
   xmlns="http://www.w3.org/2000/svg"
   xmlns:sodipodi="http://sodipodi.sourceforge.net/DTD/sodipodi-0.dtd"
   xmlns:inkscape="http://www.inkscape.org/namespaces/inkscape"
   version="1.1"
   width="64"
   height="64"
   viewBox="0 0 64 64"
   id="svg4"
   sodipodi:docname="help.svg"
   inkscape:version="0.92.3 (2405546, 2018-03-11)">
  <metadata
     id="metadata10">
    <rdf:RDF>
      <cc:Work
         rdf:about="">
        <dc:format>image/svg+xml</dc:format>
        <dc:type
           rdf:resource="http://purl.org/dc/dcmitype/StillImage" />
        <dc:title></dc:title>
      </cc:Work>
    </rdf:RDF>
  </metadata>
  <defs
     id="defs8" />
  <sodipodi:namedview
     pagecolor="#ffffff"
     bordercolor="#666666"
     borderopacity="1"
     objecttolerance="10"
     gridtolerance="10"
     guidetolerance="10"
     inkscape:pageopacity="0"
     inkscape:pageshadow="2"
     inkscape:window-width="1853"
     inkscape:window-height="1172"
     id="namedview6"
     showgrid="false"
     inkscape:zoom="9.8333333"
     inkscape:cx="12"
     inkscape:cy="12"
     inkscape:window-x="1987"
     inkscape:window-y="0"
     inkscape:window-maximized="1"
     inkscape:current-layer="svg4" />
  <path
     id="path826"
     d="M 32,2 A 30,30 0 0 0 2,32 30,30 0 0 0 32,62 30,30 0 0 0 62,32 30,30 0 0 0 32,2"
     style="stroke-width:2;stroke:#ffffff;fill:none;fill-opacity:1;stroke-opacity:1" />
  <path
     style="stroke-width:3;stroke:none;fill:#000000;fill-opacity:1.0"
     d="M 32,2 A 30,30 0 0 0 2,32 30,30 0 0 0 32,62 30,30 0 0 0 62,32 30,30 0 0 0 32,2"
     id="path13" />
  <path
     style="stroke-width:3;fill:#5fd35f;stroke:none"
     d="M 32,56 C 18.77,56 8,45.23 8,32 8,18.77 18.77,8 32,8 45.23,8 56,18.77 56,32 56,45.23 45.23,56 32,56"
     id="path11" />
  <path
     style="stroke-width:3;fill:#000000;fill-opacity:1;stroke:none"
     d="m 29,50 h 6 v -6 h -6 v 6"
     id="path15" />
  <path
     style="stroke-width:3;fill:#000000;fill-opacity:1;stroke:none"
     d="M 32,14 A 12,12 0 0 0 20,26 h 6 a 6,6 0 0 1 6,-6 6,6 0 0 1 6,6 c 0,6 -9,5.25 -9,15 h 6 c 0,-6.75 9,-7.5 9,-15 A 12,12 0 0 0 32,14 Z"
     id="path2" />
</svg>
