<?xml version="1.0" encoding="UTF-8" standalone="no"?>
<svg
   xmlns:dc="http://purl.org/dc/elements/1.1/"
   xmlns:cc="http://creativecommons.org/ns#"
   xmlns:rdf="http://www.w3.org/1999/02/22-rdf-syntax-ns#"
   xmlns:svg="http://www.w3.org/2000/svg"
   xmlns="http://www.w3.org/2000/svg"
   xmlns:sodipodi="http://sodipodi.sourceforge.net/DTD/sodipodi-0.dtd"
   xmlns:inkscape="http://www.inkscape.org/namespaces/inkscape"
   version="1.1"
   width="64"
   height="64"
   viewBox="0 0 64 64"
   id="svg4"
   sodipodi:docname="information.svg"
   inkscape:version="0.92.3 (2405546, 2018-03-11)">
  <metadata
     id="metadata10">
    <rdf:RDF>
      <cc:Work
         rdf:about="">
        <dc:format>image/svg+xml</dc:format>
        <dc:type
           rdf:resource="http://purl.org/dc/dcmitype/StillImage" />
        <dc:title></dc:title>
      </cc:Work>
    </rdf:RDF>
  </metadata>
  <defs
     id="defs8" />
  <sodipodi:namedview
     pagecolor="#ffffff"
     bordercolor="#666666"
     borderopacity="1"
     objecttolerance="10"
     gridtolerance="10"
     guidetolerance="10"
     inkscape:pageopacity="0"
     inkscape:pageshadow="2"
     inkscape:window-width="1853"
     inkscape:window-height="1172"
     id="namedview6"
     showgrid="false"
     inkscape:zoom="6.9532167"
     inkscape:cx="9.7667327"
     inkscape:cy="29.378795"
     inkscape:window-x="1987"
     inkscape:window-y="0"
     inkscape:window-maximized="1"
     inkscape:current-layer="svg4" />
  <g
     id="g827"
     transform="matrix(2.952381,0,0,2.952381,-2.9285714,-122.02381)">
    <path
       style="fill:none;stroke:#ffffff;stroke-width:0.67741934"
       d="M 12,42 A 10,10 0 0 0 2,52 10,10 0 0 0 12,62 10,10 0 0 0 22,52 10,10 0 0 0 12,42"
       id="path820"
       inkscape:connector-curvature="0" />
    <path
       id="path814"
       d="M 12,42 A 10,10 0 0 0 2,52 10,10 0 0 0 12,62 10,10 0 0 0 22,52 10,10 0 0 0 12,42"
       inkscape:connector-curvature="0" />
    <path
       style="fill:#00ccff"
       id="path816"
       d="m 12,60 c -4.41,0 -8,-3.59 -8,-8 0,-4.41 3.59,-8 8,-8 4.41,0 8,3.59 8,8 0,4.41 -3.59,8 -8,8"
       inkscape:connector-curvature="0" />
    <path
       id="path818"
       d="m 11,49 h 2 v -2 h -2"
       inkscape:connector-curvature="0" />
    <path
       id="path2"
       d="m 11,57 h 2 v -6 h -2 z"
       inkscape:connector-curvature="0" />
  </g>
</svg>
